#!OML:ASF F:\VICON\USERDATA\INSTALL\rory3\rory3.ASF
:FULLY-SPECIFIED
:DEGREES
221
root 5.90269 17.6063 -0.645503 -7.64932 -47.3356 11.5306
lowerback 9.78452 -0.26705 -7.96362
upperback 1.03111 -1.2828 -0.864212
thorax -4.26296 -0.516637 3.74643
lowerneck -19.7968 -4.0464 -10.6659
upperneck 24.1821 -4.51534 7.61121
head 11.6044 -2.11649 3.89808
rclavicle 5.49143e-014 -6.36111e-015
rhumerus -33.857 -10.8164 -81.4145
rradius 35.6133
rwrist 7.97566
rhand -11.1246 9.19864
rfingers 7.12502
rthumb 14.9005 -20.2455
lclavicle 5.49143e-014 -6.36111e-015
lhumerus -30.0321 -2.43327 82.1081
lradius 38.2395
lwrist -6.84866
lhand -15.6008 25.4399
lfingers 7.12502
lthumb 10.5852 55.1533
rfemur -31.6237 1.86816 10.8915
rtibia 19.968
rfoot -14.6688 -9.29118
rtoes -7.3357
lfemur 16.4923 -0.358776 -32.5556
ltibia -3.49861e-014
lfoot -7.75698 -6.078
ltoes -7.20052
222
root 5.79099 17.5933 -0.562846 -7.55294 -47.1228 11.6027
lowerback 9.81747 -0.319075 -8.0969
upperback 0.908994 -1.37552 -0.87128
thorax -4.39611 -0.550965 3.82755
lowerneck -19.7393 -4.0676 -10.6083
upperneck 24.1155 -4.5802 7.65529
head 11.5742 -2.13512 3.89299
rclavicle 4.2689e-014 5.96354e-015
rhumerus -34.136 -11.0212 -81.3356
rradius 35.3922
rwrist 7.90661
rhand -11.2441 9.1397
rfingers 7.12502
rthumb 14.7853 -20.3129
lclavicle 4.2689e-014 5.96354e-015
lhumerus -30.0427 -2.63503 82.1647
lradius 38.1
lwrist -6.82027
lhand -15.5848 25.4148
lfingers 7.12502
lthumb 10.6007 55.1275
rfemur -31.8074 1.55112 10.9793
rtibia 19.6266
rfoot -15.0246 -9.38872
rtoes -9.77698
lfemur 16.8569 -0.701293 -32.6033
ltibia 3.18055e-015
lfoot -7.7291 -6.10312
ltoes -8.09586
223
root 5.67859 17.5892 -0.473202 -7.44314 -47.1595 11.5617
lowerback 9.82582 -0.298688 -8.04017
upperback 0.823274 -1.34616 -0.858327
thorax -4.49587 -0.530594 3.80667
lowerneck -19.7364 -4.11649 -10.6593
upperneck 24.0796 -4.65428 7.7357
head 11.5716 -2.16274 3.91925
rclavicle -5.56597e-015 1.90833e-014
rhumerus -34.3523 -11.3102 -81.1977
rradius 35.0593
rwrist 7.8672
rhand -11.118 9.13372
rfingers 7.12502
rthumb 14.9069 -20.3099
lclavicle -5.56597e-015 1.90833e-014
lhumerus -30.052 -2.77029 82.2483
lradius 37.9759
lwrist -6.92332
lhand -15.8998 25.4892
lfingers 7.12502
lthumb 10.2968 55.2171
rfemur -32.012 0.593905 11.5689
rtibia 19.6923
rfoot -14.6493 -8.442
rtoes -9.4
lfemur 17.2705 -0.799933 -32.5303
ltibia 3.18055e-015
lfoot -7.69137 -6.20213
ltoes -8.22061
224
root 5.56653 17.5825 -0.381405 -7.5097 -47.4043 11.6954
lowerback 9.83666 -0.227546 -8.05137
upperback 0.758615 -1.25851 -0.880852
thorax -4.5815 -0.482019 3.77871
lowerneck -19.8314 -4.1537 -10.6379
upperneck 24.1172 -4.67625 7.63399
head 11.6041 -2.18161 3.87389
rclavicle 6.04802e-014 -6.36111e-015
rhumerus -34.5191 -11.8573 -80.9637
rradius 34.6001
rwrist 8.33907
rhand -10.8631 9.35128
rfingers 7.12502
rthumb 15.1523 -20.074
lclavicle 6.04802e-014 -6.36111e-015
lhumerus -30.0423 -2.80463 82.2883
lradius 37.8393
lwrist -7.02861
lhand -15.9301 26.0065
lfingers 7.12502
lthumb 10.2676 55.7358
rfemur -32.2932 -0.950835 12.4279
rtibia 20.0503
rfoot -13.5538 -6.72281
rtoes -7.58926
lfemur 17.7126 -0.674738 -32.5354
ltibia 6.36111e-015
lfoot -7.55182 -6.44827
ltoes -7.40382
225
root 5.45312 17.5685 -0.291978 -7.73323 -47.6602 11.945
lowerback 9.92391 -0.117368 -8.16995
upperback 0.715668 -1.14003 -0.93717
thorax -4.68973 -0.416477 3.77229
lowerneck -19.9209 -4.17756 -10.5293
upperneck 24.1702 -4.69797 7.49096
head 11.6376 -2.19783 3.79842
rclavicle -3.84648e-014 -3.97569e-016
rhumerus -34.7174 -12.4285 -80.7685
rradius 34.1706
rwrist 8.75448
rhand -10.7553 9.35254
rfingers 7.12502
rthumb 15.2562 -20.0649
lclavicle -3.84648e-014 -3.97569e-016
lhumerus -30.1056 -2.94568 82.3155
lradius 37.7851
lwrist -7.02462
lhand -15.8222 25.9273
lfingers 7.12502
lthumb 10.3717 55.6515
rfemur -32.5028 -2.31752 13.1567
rtibia 20.5849
rfoot -12.4216 -5.33643
rtoes -5.69948
lfemur 18.2455 -0.512309 -32.6231
ltibia 6.36111e-015
lfoot -7.48017 -6.67126
ltoes -8.12259
226
root 5.33609 17.553 -0.201531 -7.87713 -47.848 11.9996
lowerback 10.0836 -0.0571921 -8.18794
upperback 0.690185 -1.081 -0.954451
thorax -4.81373 -0.381618 3.75918
lowerneck -20.004 -4.14969 -10.52
upperneck 24.2379 -4.67415 7.55286
head 11.6784 -2.17795 3.82577
rclavicle -2.45996e-014 2.22639e-014
rhumerus -34.8965 -12.7269 -80.6935
rradius 33.7827
rwrist 8.7507
rhand -10.8754 9.16813
rfingers 7.12502
rthumb 15.1406 -20.258
lclavicle -2.45996e-014 2.22639e-014
lhumerus -30.182 -2.70073 82.2545
lradius 37.6553
lwrist -7.32785
lhand -15.9129 25.449
lfingers 7.12502
lthumb 10.2842 55.1776
rfemur -32.5859 -3.28009 13.8432
rtibia 21.2642
rfoot -11.6605 -4.75198
rtoes -5.63698
lfemur 18.8863 -0.421436 -32.5806
ltibia 1.59028e-014
lfoot -7.37529 -6.78158
ltoes -9.62302
227
root 5.21532 17.5409 -0.104437 -8.0318 -47.8889 11.9472
lowerback 10.2476 -0.0700741 -8.12319
upperback 0.731953 -1.10491 -0.945452
thorax -4.8594 -0.394222 3.73811
lowerneck -20.2286 -4.1167 -10.422
upperneck 24.3605 -4.6196 7.4773
head 11.7588 -2.15072 3.79166
rclavicle -9.42736e-014 3.97569e-015
rhumerus -35.045 -12.8423 -80.6629
rradius 33.4278
rwrist 8.38448
rhand -10.8663 9.2118
rfingers 7.12502
rthumb 15.1493 -20.2137
lclavicle -9.42736e-014 3.97569e-015
lhumerus -30.2258 -2.2657 82.1882
lradius 37.4795
lwrist -7.65084
lhand -15.8956 25.6793
lfingers 7.12502
lthumb 10.3009 55.4071
rfemur -32.4292 -3.72187 14.2866
rtibia 22.0203
rfoot -11.4859 -4.72356
rtoes -6.32336
lfemur 19.6516 -0.462993 -32.4909
ltibia 2.54444e-014
lfoot -7.11516 -6.95451
ltoes -10.2753
228
root 5.0892 17.5297 -0.00156456 -8.23801 -47.9502 11.9434
lowerback 10.3545 -0.0749304 -8.10847
upperback 0.759845 -1.11693 -0.906914
thorax -4.88777 -0.399762 3.77381
lowerneck -20.4585 -4.07132 -10.2658
upperneck 24.4875 -4.51806 7.2349
head 11.8317 -2.11796 3.69175
rclavicle 2.31087e-014 -1.43125e-014
rhumerus -35.236 -12.6539 -80.6911
rradius 33.0883
rwrist 7.7291
rhand -10.9593 9.33744
rfingers 7.12502
rthumb 15.0597 -20.0948
lclavicle 2.31087e-014 -1.43125e-014
lhumerus -30.3296 -1.78162 82.1892
lradius 37.2505
lwrist -7.83644
lhand -15.9655 26.1181
lfingers 7.12502
lthumb 10.2335 55.8492
rfemur -32.1286 -3.61354 14.4283
rtibia 22.7096
rfoot -11.6382 -4.46787
rtoes -5.17456
lfemur 20.428 -0.472093 -32.4555
ltibia -5.40694e-014
lfoot -6.86203 -7.09046
ltoes -12.3832
229
root 4.95779 17.5192 0.0952881 -8.44073 -47.9572 11.8575
lowerback 10.5345 -0.090226 -8.10453
upperback 0.802547 -1.14915 -0.842909
thorax -4.93801 -0.414309 3.84654
lowerneck -20.4834 -4.03967 -10.2404
upperneck 24.4377 -4.4368 7.10454
head 11.8051 -2.09414 3.64983
rclavicle 5.44173e-014 6.36111e-015
rhumerus -35.3676 -12.8514 -80.5321
rradius 32.5271
rwrist 7.99432
rhand -11.4172 8.81659
rfingers 7.12502
rthumb 14.6186 -20.6482
lclavicle 5.44173e-014 6.36111e-015
lhumerus -30.4296 -1.41522 82.1935
lradius 36.9626
lwrist -7.87527
lhand -16.0858 26.0053
lfingers 7.12502
lthumb 10.1174 55.7421
rfemur -31.664 -3.06685 14.4385
rtibia 23.3434
rfoot -11.8219 -3.78227
rtoes -4.81905
lfemur 21.269 -0.536755 -32.3477
ltibia 1.90833e-014
lfoot -6.54035 -7.23427
ltoes -13.8731
230
root 4.82361 17.5171 0.185981 -8.48432 -47.7576 11.6017
lowerback 10.7885 -0.145512 -8.05726
upperback 0.811099 -1.23716 -0.767899
thorax -5.05935 -0.453056 3.91655
lowerneck -20.4416 -4.03626 -10.1501
upperneck 24.3876 -4.42598 6.97288
head 11.7708 -2.09744 3.58501
rclavicle -9.93923e-016 -1.23246e-014
rhumerus -35.5115 -13.772 -80.0363
rradius 31.7503
rwrist 9.16835
rhand -11.7932 8.02356
rfingers 7.12502
rthumb 14.2563 -21.4671
lclavicle -9.93923e-016 -1.23246e-014
lhumerus -30.5925 -1.26407 82.2458
lradius 36.6673
lwrist -7.80698
lhand -16.3586 25.5504
lfingers 7.12502
lthumb 9.85423 55.2998
rfemur -31.1262 -2.52899 14.4825
rtibia 23.925
rfoot -11.8056 -2.76248
rtoes -6.41638
lfemur 22.0978 -0.833575 -32.1316
ltibia 2.54444e-014
lfoot -5.98723 -7.41891
ltoes -14.1673
231
root 4.6795 17.5176 0.288663 -8.52029 -47.4983 11.5502
lowerback 10.6986 -0.227348 -8.12052
upperback 0.808323 -1.3429 -0.744758
thorax -4.99657 -0.505795 3.98985
lowerneck -20.4492 -4.04863 -10.1656
upperneck 24.4452 -4.4534 7.01283
head 11.7987 -2.10716 3.59959
rclavicle -3.66261e-014 1.63003e-014
rhumerus -35.691 -14.7343 -79.5319
rradius 30.9491
rwrist 10.0458
rhand -11.978 7.98724
rfingers 7.12502
rthumb 14.0782 -21.5159
lclavicle -3.66261e-014 1.63003e-014
lhumerus -30.8204 -1.03158 82.2769
lradius 36.4455
lwrist -7.49979
lhand -16.6536 25.5058
lfingers 7.12502
lthumb 9.56956 55.2685
rfemur -30.699 -2.23956 14.3948
rtibia 24.4146
rfoot -11.6129 -1.28964
rtoes -6.55077
lfemur 22.7768 -1.19445 -32.0929
ltibia 5.08889e-014
lfoot -5.23056 -7.67611
ltoes -14.1574
232
root 4.52439 17.5274 0.401917 -8.49831 -47.3037 11.2952
lowerback 10.4848 -0.341356 -8.05974
upperback 0.900073 -1.45549 -0.649831
thorax -4.76389 -0.573628 4.06584
lowerneck -20.4343 -4.03529 -10.2896
upperneck 24.4277 -4.41289 7.08151
head 11.7899 -2.09212 3.65316
rclavicle -7.50909e-014 -4.77083e-015
rhumerus -35.7512 -15.4546 -79.1127
rradius 30.168
rwrist 10.6021
rhand -11.9455 7.9886
rfingers 7.12502
rthumb 14.1095 -21.5124
lclavicle -7.50909e-014 -4.77083e-015
lhumerus -31.0456 -0.370007 82.2074
lradius 36.3111
lwrist -7.29992
lhand -16.2055 25.8838
lfingers 7.12502
lthumb 10.0019 55.6262
rfemur -30.0623 -1.82581 14.427
rtibia 24.7293
rfoot -10.9405 0.0250487
rtoes -4.70374
lfemur 23.5792 -1.49868 -31.898
ltibia 9.54166e-015
lfoot -4.37296 -8.04412
ltoes -14.1943
233
root 4.37143 17.5534 0.503195 -8.13651 -46.9456 10.974
lowerback 10.2065 -0.510766 -8.11453
upperback 0.825068 -1.65134 -0.469141
thorax -4.65505 -0.668699 4.30777
lowerneck -20.2028 -3.97428 -10.4211
upperneck 24.2991 -4.29417 7.05897
head 11.6857 -2.05675 3.68402
rclavicle 4.99446e-014 -3.97569e-015
rhumerus -35.9628 -15.8906 -78.6771
rradius 29.537
rwrist 10.9358
rhand -11.9614 7.7967
rfingers 7.12502
rthumb 14.0942 -21.7053
lclavicle 4.99446e-014 -3.97569e-015
lhumerus -31.4005 0.288107 82.2702
lradius 36.1223
lwrist -7.04379
lhand -16.3272 26.1377
lfingers 7.12502
lthumb 9.88445 55.8857
rfemur -29.7491 -1.22118 14.4016
rtibia 24.9404
rfoot -9.40205 0.610146
rtoes -4.12691
lfemur 23.9846 -2.04363 -31.6188
ltibia 3.49861e-014
lfoot -3.08446 -8.33045
ltoes -12.5283
234
root 4.22154 17.5883 0.60249 -7.51071 -46.5637 10.3655
lowerback 9.99869 -0.665033 -7.91017
upperback 0.697946 -1.80712 -0.288761
thorax -4.65212 -0.743139 4.39971
lowerneck -20.0848 -3.96609 -10.4354
upperneck 24.3404 -4.29651 7.06337
head 11.6791 -2.06212 3.68902
rclavicle 2.63887e-014 -1.19271e-015
rhumerus -36.3105 -16.3606 -78.3001
rradius 29.0548
rwrist 11.1101
rhand -11.6437 7.89277
rfingers 7.12502
rthumb 14.4004 -21.5877
lclavicle 2.63887e-014 -1.19271e-015
lhumerus -31.7056 0.636043 82.4177
lradius 35.7472
lwrist -6.74459
lhand -17.187 26.1405
lfingers 7.12502
lthumb 9.05492 55.9262
rfemur -29.5327 -0.563439 14.5787
rtibia 25.0794
rfoot -7.73694 0.854447
rtoes -3.40447
lfemur 24.2829 -2.65432 -31.1191
ltibia 6.36111e-014
lfoot -1.61936 -8.59112
ltoes -11.6505
